# xmcd
#
# Track frame offsets:
# 183
# 17143
# 35335
# 49095
# 63518
# 74400
# 95363
# 107863
# 131240
# 141863
# 158583
# 170145
# 190860
# 209540
# 221873
# 234050
# 247963
# 259243
# 275630
#
# Disc length: 3929 seconds
#
#
# Revision: 4
# Processed by: cddbd v1.5.2PL0 Copyright (c) Steve Scherf et al.
# Submitted via: FreeRIP 2.951 
#
DISCID=220f5713
DTITLE=Elis Regina - Mestres da MPB - Mestres da MPB
DYEAR=1900
DGENRE=POPULAR
TTITLE0=O Bêbado E O Equlibrista
TTITLE1=Alô, Alô Marciano
TTITLE2=Canção Da América
TTITLE3=Onze Fitas
TTITLE4=Menino
TTITLE5=Aos Nossos Filhos
TTITLE6=Maria, Maria
TTITLE7=Garota De Ipanema
TTITLE8=Upa, Neguinho
TTITLE9=Basta De Clamares Inocência
TTITLE10=Aquarela Do Brasil
TTITLE11=Conversando No Bar
TTITLE12=Redescobrir
TTITLE13=O Que Foi Feito Dever
TTITLE14=Cai Dentro
TTITLE15=Madalena
TTITLE16=Marambaia
TTITLE17=Corcovado
TTITLE18=Sabiá
EXTD=
EXTT0=(Jo o Bosco - Aldir Blanc)
EXTT1=(Rita Lee - Roberto Carvalho)
EXTT2=(Milton Nascimento - Fernando Brant)
EXTT3=(F tima Guedes)
EXTT4=(Milton Nascimento - Ronaldo Bastos)
EXTT5=(Van Lins - V tor Martins)
EXTT6=(Milton Nascimento - Fernando Brant)
EXTT7=(Tom Jobim - Vin cius De Moraes]\nJam Session Com Hermeto Pascoal
EXTT8=(Edu Lobo - Gianfrancesco Guarnieri)
EXTT9=(Cartola)
EXTT10=(Ary Barroso)
EXTT11=(Milton Nascimento - Fernando Brant)
EXTT12=(Luiz Gonzaga Jr.)
EXTT13=(Milton Nascimento - Fernando Brant)
EXTT14=(Baden Powel - Paulo C sar Pinheiro)
EXTT15=(Ivan Lins - Ronaldo Monteiro De Souza)
EXTT16=(Henric o - Rubens Campos)
EXTT17=(Tom Jobim) Com Hermeto Pascoal
EXTT18=(Ant nio Carlos Jobim - Chico Buarque)
PLAYORDER=
